#Comment line ignore any data following # character 
#Hierarchical Translation and Rotation (.htr) file 
[Header]	
#Header keywords are followed by a single value 
FileType HTR		#Single word string
DataType HTRS		#Translation followed by rotation and scale data
FileVersion 1		#integer
NumSegments 84		#integer
NumFrames 2		#integer
DataFrameRate 30		#integer, data frame rate in this file
EulerRotationOrder ZYX
CalibrationUnits mm
RotationUnits Degrees
GlobalAxisofGravity Y
BoneLengthAxis Y
ScaleFactor 1.00
[SegmentNames&Hierarchy]
#CHILD	PARENT
MASTER GLOBAL
root MASTER
chest root
L_mid_tent01 root
R_mid_tent01 root
spine01 root
Bip01_Neck chest
L_humerus chest
R_humerus chest
weapon_bone chest
Bip01_Head Bip01_Neck
eye_left_bone Bip01_Head
eye_right_bone Bip01_Head
L_forearm L_humerus
L_front_hand L_forearm
L_weapon_bone L_forearm
L_front_hand01_01 L_front_hand
L_front_hand02_01 L_front_hand
L_front_hand03_01 L_front_hand
L_front_hand01_02 L_front_hand01_01
L_front_hand02_02 L_front_hand02_01
L_front_hand03_02 L_front_hand03_01
R_forearm R_humerus
R_front_hand R_forearm
R_weapon_bone R_forearm
R_front_hand01_01 R_front_hand
R_front_hand02_01 R_front_hand
R_front_hand03_01 R_front_hand
R_front_hand01_02 R_front_hand01_01
R_front_hand02_02 R_front_hand02_01
R_front_hand03_02 R_front_hand03_01
null_rope01_connect L_mid_tent01
Rope1_Seg01 null_rope01_connect
Rope1_Seg02 Rope1_Seg01
Rope1_Seg03 Rope1_Seg02
Rope1_Seg04 Rope1_Seg03
Rope1_Seg05 Rope1_Seg04
Rope1_Seg06 Rope1_Seg05
Rope1_Seg07 Rope1_Seg06
Rope1_Seg09 Rope1_Seg07
L_mid_hand01 Rope1_Seg09
L_mid_hand02 Rope1_Seg09
L_mid_hand03 Rope1_Seg09
null_rope02_connect R_mid_tent01
Rope2_Seg01 null_rope02_connect
Rope2_Seg02 Rope2_Seg01
Rope2_Seg03 Rope2_Seg02
Rope2_Seg04 Rope2_Seg03
Rope2_Seg05 Rope2_Seg04
Rope2_Seg06 Rope2_Seg05
Rope2_Seg07 Rope2_Seg06
Rope2_Seg09 Rope2_Seg07
R_mid_hand01 Rope2_Seg09
R_mid_hand02 Rope2_Seg09
R_mid_hand03 Rope2_Seg09
spine02 spine01
spine03 spine02
pelvis spine03
null_rope03_connect pelvis
null_rope04_connect pelvis
Rope3_Seg01 null_rope03_connect
Rope3_Seg02 Rope3_Seg01
Rope3_Seg03 Rope3_Seg02
Rope3_Seg04 Rope3_Seg03
Rope3_Seg05 Rope3_Seg04
Rope3_Seg06 Rope3_Seg05
Rope3_Seg07 Rope3_Seg06
Rope3_Seg08 Rope3_Seg07
Rope3_Seg09 Rope3_Seg08
R_rear_hand01 Rope3_Seg09
R_rear_hand02 Rope3_Seg09
R_rear_hand03 Rope3_Seg09
Rope4_Seg01 null_rope04_connect
Rope4_Seg02 Rope4_Seg01
Rope4_Seg03 Rope4_Seg02
Rope4_Seg04 Rope4_Seg03
Rope4_Seg05 Rope4_Seg04
Rope4_Seg06 Rope4_Seg05
Rope4_Seg07 Rope4_Seg06
Rope4_Seg08 Rope4_Seg07
Rope4_Seg09 Rope4_Seg08
L_rear_hand01 Rope4_Seg09
L_rear_hand02 Rope4_Seg09
L_rear_hand03 Rope4_Seg09
[BasePosition]
#SegmentName Tx, Ty, Tz, Rx, Ry, Rz, BoneLength
MASTER 0.000000 0.000000 0.000000 -90.000000 0.000000 0.000000 10.000000 
root 0.000000 0.000000 0.000000 0.000000 0.000000 0.000000 10.000000 
chest 0.000000 0.000000 0.000000 0.000000 0.000000 0.000000 10.000000 
L_mid_tent01 0.000000 0.000000 0.000000 0.000000 0.000000 0.000000 10.000000 
R_mid_tent01 0.000000 0.000000 0.000000 0.000000 0.000000 0.000000 10.000000 
spine01 0.000000 0.000000 0.000000 0.000000 0.000000 0.000000 10.000000 
Bip01_Neck 0.000000 0.000000 0.000000 0.000000 0.000000 0.000000 10.000000 
L_humerus 0.000000 0.000000 0.000000 0.000000 0.000000 0.000000 10.000000 
R_humerus 0.000000 0.000000 0.000000 0.000000 0.000000 0.000000 10.000000 
weapon_bone 0.000000 0.000000 0.000000 0.000000 0.000000 0.000000 10.000000 
Bip01_Head 0.000000 0.000000 0.000000 0.000000 0.000000 0.000000 10.000000 
eye_left_bone 0.000000 0.000000 0.000000 0.000000 0.000000 0.000000 10.000000 
eye_right_bone 0.000000 0.000000 0.000000 0.000000 0.000000 0.000000 10.000000 
L_forearm 0.000000 0.000000 0.000000 0.000000 0.000000 0.000000 10.000000 
L_front_hand 0.000000 0.000000 0.000000 0.000000 0.000000 0.000000 10.000000 
L_weapon_bone 0.000000 0.000000 0.000000 0.000000 0.000000 0.000000 10.000000 
L_front_hand01_01 0.000000 0.000000 0.000000 0.000000 0.000000 0.000000 10.000000 
L_front_hand02_01 0.000000 0.000000 0.000000 0.000000 0.000000 0.000000 10.000000 
L_front_hand03_01 0.000000 0.000000 0.000000 0.000000 0.000000 0.000000 10.000000 
L_front_hand01_02 0.000000 0.000000 0.000000 0.000000 0.000000 0.000000 10.000000 
L_front_hand02_02 0.000000 0.000000 0.000000 0.000000 0.000000 0.000000 10.000000 
L_front_hand03_02 0.000000 0.000000 0.000000 0.000000 0.000000 0.000000 10.000000 
R_forearm 0.000000 0.000000 0.000000 0.000000 0.000000 0.000000 10.000000 
R_front_hand 0.000000 0.000000 0.000000 0.000000 0.000000 0.000000 10.000000 
R_weapon_bone 0.000000 0.000000 0.000000 0.000000 0.000000 0.000000 10.000000 
R_front_hand01_01 0.000000 0.000000 0.000000 0.000000 0.000000 0.000000 10.000000 
R_front_hand02_01 0.000000 0.000000 0.000000 0.000000 0.000000 0.000000 10.000000 
R_front_hand03_01 0.000000 0.000000 0.000000 0.000000 0.000000 0.000000 10.000000 
R_front_hand01_02 0.000000 0.000000 0.000000 0.000000 0.000000 0.000000 10.000000 
R_front_hand02_02 0.000000 0.000000 0.000000 0.000000 0.000000 0.000000 10.000000 
R_front_hand03_02 0.000000 0.000000 0.000000 0.000000 0.000000 0.000000 10.000000 
null_rope01_connect 0.000000 0.000000 0.000000 0.000000 0.000000 0.000000 10.000000 
Rope1_Seg01 0.000000 0.000000 0.000000 0.000000 0.000000 0.000000 10.000000 
Rope1_Seg02 0.000000 0.000000 0.000000 0.000000 0.000000 0.000000 10.000000 
Rope1_Seg03 0.000000 0.000000 0.000000 0.000000 0.000000 0.000000 10.000000 
Rope1_Seg04 0.000000 0.000000 0.000000 0.000000 0.000000 0.000000 10.000000 
Rope1_Seg05 0.000000 0.000000 0.000000 0.000000 0.000000 0.000000 10.000000 
Rope1_Seg06 0.000000 0.000000 0.000000 0.000000 0.000000 0.000000 10.000000 
Rope1_Seg07 0.000000 0.000000 0.000000 0.000000 0.000000 0.000000 10.000000 
Rope1_Seg09 0.000000 0.000000 0.000000 0.000000 0.000000 0.000000 10.000000 
L_mid_hand01 0.000000 0.000000 0.000000 0.000000 0.000000 0.000000 10.000000 
L_mid_hand02 0.000000 0.000000 0.000000 0.000000 0.000000 0.000000 10.000000 
L_mid_hand03 0.000000 0.000000 0.000000 0.000000 0.000000 0.000000 10.000000 
null_rope02_connect 0.000000 0.000000 0.000000 0.000000 0.000000 0.000000 10.000000 
Rope2_Seg01 0.000000 0.000000 0.000000 0.000000 0.000000 0.000000 10.000000 
Rope2_Seg02 0.000000 0.000000 0.000000 0.000000 0.000000 0.000000 10.000000 
Rope2_Seg03 0.000000 0.000000 0.000000 0.000000 0.000000 0.000000 10.000000 
Rope2_Seg04 0.000000 0.000000 0.000000 0.000000 0.000000 0.000000 10.000000 
Rope2_Seg05 0.000000 0.000000 0.000000 0.000000 0.000000 0.000000 10.000000 
Rope2_Seg06 0.000000 0.000000 0.000000 0.000000 0.000000 0.000000 10.000000 
Rope2_Seg07 0.000000 0.000000 0.000000 0.000000 0.000000 0.000000 10.000000 
Rope2_Seg09 0.000000 0.000000 0.000000 0.000000 0.000000 0.000000 10.000000 
R_mid_hand01 0.000000 0.000000 0.000000 0.000000 0.000000 0.000000 10.000000 
R_mid_hand02 0.000000 0.000000 0.000000 0.000000 0.000000 0.000000 10.000000 
R_mid_hand03 0.000000 0.000000 0.000000 0.000000 0.000000 0.000000 10.000000 
spine02 0.000000 0.000000 0.000000 0.000000 0.000000 0.000000 10.000000 
spine03 0.000000 0.000000 0.000000 0.000000 0.000000 0.000000 10.000000 
pelvis 0.000000 0.000000 0.000000 0.000000 0.000000 0.000000 10.000000 
null_rope03_connect 0.000000 0.000000 0.000000 0.000000 0.000000 0.000000 10.000000 
null_rope04_connect 0.000000 0.000000 0.000000 0.000000 0.000000 0.000000 10.000000 
Rope3_Seg01 0.000000 0.000000 0.000000 0.000000 0.000000 0.000000 10.000000 
Rope3_Seg02 0.000000 0.000000 0.000000 0.000000 0.000000 0.000000 10.000000 
Rope3_Seg03 0.000000 0.000000 0.000000 0.000000 0.000000 0.000000 10.000000 
Rope3_Seg04 0.000000 0.000000 0.000000 0.000000 0.000000 0.000000 10.000000 
Rope3_Seg05 0.000000 0.000000 0.000000 0.000000 0.000000 0.000000 10.000000 
Rope3_Seg06 0.000000 0.000000 0.000000 0.000000 0.000000 0.000000 10.000000 
Rope3_Seg07 0.000000 0.000000 0.000000 0.000000 0.000000 0.000000 10.000000 
Rope3_Seg08 0.000000 0.000000 0.000000 0.000000 0.000000 0.000000 10.000000 
Rope3_Seg09 0.000000 0.000000 0.000000 0.000000 0.000000 0.000000 10.000000 
R_rear_hand01 0.000000 0.000000 0.000000 0.000000 0.000000 0.000000 10.000000 
R_rear_hand02 0.000000 0.000000 0.000000 0.000000 0.000000 0.000000 10.000000 
R_rear_hand03 0.000000 0.000000 0.000000 0.000000 0.000000 0.000000 10.000000 
Rope4_Seg01 0.000000 0.000000 0.000000 0.000000 0.000000 0.000000 10.000000 
Rope4_Seg02 0.000000 0.000000 0.000000 0.000000 0.000000 0.000000 10.000000 
Rope4_Seg03 0.000000 0.000000 0.000000 0.000000 0.000000 0.000000 10.000000 
Rope4_Seg04 0.000000 0.000000 0.000000 0.000000 0.000000 0.000000 10.000000 
Rope4_Seg05 0.000000 0.000000 0.000000 0.000000 0.000000 0.000000 10.000000 
Rope4_Seg06 0.000000 0.000000 0.000000 0.000000 0.000000 0.000000 10.000000 
Rope4_Seg07 0.000000 0.000000 0.000000 0.000000 0.000000 0.000000 10.000000 
Rope4_Seg08 0.000000 0.000000 0.000000 0.000000 0.000000 0.000000 10.000000 
Rope4_Seg09 0.000000 0.000000 0.000000 0.000000 0.000000 0.000000 10.000000 
L_rear_hand01 0.000000 0.000000 0.000000 0.000000 0.000000 0.000000 10.000000 
L_rear_hand02 0.000000 0.000000 0.000000 0.000000 0.000000 0.000000 10.000000 
L_rear_hand03 0.000000 0.000000 0.000000 0.000000 0.000000 0.000000 10.000000 
#Beginning of Data. Separated by tabs
#Fr	Tx	Ty	Tz	Rx	Ry	Rz	SF
[MASTER]
15 0.000000 0.000000 0.000000 0.001660 0.001660 0.001660 0.000000
16 0.000000 0.000000 0.000000 0.001660 0.001660 0.001660 0.000000
[root]
15 -27.884632 -56.740528 1501.395752 -78.216667 -39.024372 -87.973343 1502.726196
16 -27.884632 -56.740528 1501.395752 -78.216667 -39.024372 -87.973343 1502.726196
[chest]
15 -84.512650 -34.090519 0.000000 -2.594532 -0.201363 179.701126 91.129311
16 -84.512650 -34.090519 0.000000 -2.594532 -0.201363 179.701126 91.129311
[L_mid_tent01]
15 27.299511 22.177458 -249.918259 3.862628 36.229202 81.347610 252.381134
16 27.299511 22.177458 -249.918259 3.862628 36.229202 81.347610 252.381134
[R_mid_tent01]
15 23.228794 24.509907 226.238495 160.432037 -47.061241 87.899765 228.744751
16 23.228794 24.509907 226.238495 160.432037 -47.061241 87.899765 228.744751
[spine01]
15 -0.361383 -0.195265 0.000000 0.002062 0.001122 32.879829 0.410763
16 -0.361383 -0.195265 0.000000 0.002062 0.001122 32.879829 0.410763
[Bip01_Neck]
15 165.484543 71.581718 0.000119 176.643677 -1.657967 43.431911 180.302734
16 165.484543 71.581718 0.000119 176.643677 -1.657967 43.431911 180.302734
[L_humerus]
15 -13.983130 -135.272980 -120.471481 156.317398 70.210068 -112.010254 181.680161
16 -13.983130 -135.272980 -120.471481 156.317398 70.210068 -112.010254 181.680161
[R_humerus]
15 -13.983309 -135.273102 125.287651 -172.382263 -66.903831 -92.553993 184.909012
16 -13.983309 -135.273102 125.287651 -172.382263 -66.903831 -92.553993 184.909012
[weapon_bone]
15 235.964890 -300.705902 0.000000 0.000000 -89.951546 -128.212341 382.234833
16 235.964890 -300.705902 0.000000 0.000000 -89.951546 -128.212341 382.234833
[Bip01_Head]
15 213.372025 185.916519 9.179950 9.067745 3.281933 -43.888077 283.155151
16 213.372025 185.916519 9.179952 9.067745 3.281933 -43.888077 283.155151
[eye_left_bone]
15 -24.626970 125.451866 -64.772606 0.000000 -90.000000 -99.840431 143.318359
16 -24.626970 125.451866 -64.772606 0.000000 -90.000000 -99.840431 143.318359
[eye_right_bone]
15 -24.626970 125.451866 64.327362 0.000000 -89.965736 80.156380 143.117676
16 -24.626970 125.451866 64.327362 0.000000 -89.965736 80.156380 143.117676
[L_forearm]
15 322.776093 0.000000 -0.000119 0.000119 -0.002344 -95.807457 322.776093
16 322.776093 0.000000 -0.000119 0.000119 -0.002344 -95.807457 322.776093
[L_front_hand]
15 241.149185 -0.042021 -3.300071 -178.667953 -1.835447 -27.422350 241.171753
16 241.149185 -0.042021 -3.300071 -178.667953 -1.835447 -27.422350 241.171753
[L_weapon_bone]
15 156.183838 0.000000 0.000000 0.000014 0.000007 0.000001 156.183838
16 156.183838 0.000000 0.000000 0.000014 0.000007 0.000001 156.183838
[L_front_hand01_01]
15 86.095154 20.947098 -0.655860 -0.366594 -0.477154 75.385574 88.609184
16 86.095154 20.947098 -0.655860 -0.366594 -0.477154 75.385574 88.609184
[L_front_hand02_01]
15 86.935165 -11.437475 24.513514 154.399796 -59.883835 -61.369587 91.046425
16 86.935165 -11.437475 24.513514 154.399796 -59.883835 -61.369587 91.046425
[L_front_hand03_01]
15 86.637497 -14.123976 -20.424902 -153.913849 58.118122 -62.702866 90.126129
16 86.637497 -14.123976 -20.424902 -153.913849 58.118122 -62.702866 90.126129
[L_front_hand01_02]
15 71.020905 -0.000179 0.000030 0.000334 -0.002323 -106.379684 71.020905
16 71.020905 -0.000179 0.000030 0.000334 -0.002323 -106.379684 71.020905
[L_front_hand02_02]
15 71.020927 -0.000119 0.000060 0.000334 -0.002323 -106.379684 71.020927
16 71.020927 -0.000119 0.000060 0.000334 -0.002323 -106.379684 71.020927
[L_front_hand03_02]
15 71.020905 -0.000060 0.000060 0.000334 -0.002323 -106.379684 71.020905
16 71.020905 -0.000060 0.000060 0.000334 -0.002323 -106.379684 71.020905
[R_forearm]
15 322.776428 -0.000060 0.000030 0.209504 0.012586 -94.339050 322.776428
16 322.776428 -0.000060 0.000030 0.209504 0.012586 -94.339050 322.776428
[R_front_hand]
15 238.847015 -0.006795 2.210259 -2.635298 -10.645461 -26.312506 238.857239
16 238.847015 -0.006795 2.210259 -2.635298 -10.645461 -26.312506 238.857239
[R_weapon_bone]
15 155.664093 0.002503 -0.000030 0.003487 0.001180 -90.988930 155.664078
16 155.664093 0.002503 -0.000030 0.003487 0.001180 -90.988930 155.664078
[R_front_hand01_01]
15 87.624611 14.231146 22.918642 -154.633499 -59.950619 61.746044 91.683487
16 87.624611 14.231146 22.918642 -154.633514 -59.950634 61.746063 91.683487
[R_front_hand02_01]
15 89.356956 14.367283 -19.491137 154.602661 58.302849 63.744389 92.579636
16 89.356956 14.367283 -19.491137 154.602661 58.302849 63.744389 92.579636
[R_front_hand03_01]
15 87.286232 -22.307278 -0.143439 0.162155 -0.423168 -75.767921 90.091743
16 87.286232 -22.307278 -0.143439 0.162155 -0.423168 -75.767921 90.091743
[R_front_hand01_02]
15 71.020905 0.000060 0.000119 0.002323 -0.000334 106.381714 71.020905
16 71.020905 0.000060 0.000119 0.002323 -0.000334 106.381714 71.020905
[R_front_hand02_02]
15 71.020844 -0.000030 -0.000119 0.002323 -0.000334 106.381714 71.020836
16 71.020844 -0.000030 -0.000119 0.002323 -0.000334 106.381714 71.020836
[R_front_hand03_02]
15 71.020905 0.000000 0.000030 0.002323 -0.000334 106.381714 71.020905
16 71.020905 0.000000 0.000030 0.002323 -0.000334 106.381714 71.020905
[null_rope01_connect]
15 328.732483 0.000000 -0.000238 -121.867149 -66.548218 170.046249 328.732483
16 328.732483 0.000000 -0.000238 -121.867149 -66.548218 170.046249 328.732483
[Rope1_Seg01]
15 0.000000 0.000000 0.000000 105.818085 -1.737554 -168.425400 0.000000
16 0.000000 0.000000 0.000000 105.945206 -1.484841 -168.347885 0.000000
[Rope1_Seg02]
15 139.999863 -0.000179 0.000000 14.144706 -15.481606 -11.087633 139.999863
16 139.999863 -0.000179 0.000000 14.177213 -15.546067 -10.985249 139.999863
[Rope1_Seg03]
15 139.999924 0.000060 -0.000060 20.100273 -28.319321 -17.698334 139.999924
16 139.999924 0.000060 -0.000060 19.881130 -28.295805 -17.356661 139.999924
[Rope1_Seg04]
15 139.999924 -0.000060 -0.000119 4.535592 -27.117310 -1.601764 139.999924
16 139.999924 -0.000060 -0.000119 4.424181 -27.098934 -1.416250 139.999924
[Rope1_Seg05]
15 139.999832 0.000119 -0.000060 -2.462776 -15.715159 15.930032 139.999832
16 139.999832 0.000119 -0.000060 -2.519485 -15.909487 15.815001 139.999832
[Rope1_Seg06]
15 139.999954 0.000119 -0.000060 -1.448858 -8.874444 7.471286 139.999954
16 139.999954 0.000119 -0.000060 -1.513199 -8.935904 7.353171 139.999954
[Rope1_Seg07]
15 139.999985 0.000060 0.000000 -1.195654 -4.996940 3.376195 139.999985
16 139.999985 0.000060 0.000000 -1.238632 -5.020953 3.323895 139.999985
[Rope1_Seg09]
15 121.602913 0.000119 -0.000089 -89.793175 -1.359789 0.847147 121.602913
16 121.602913 0.000119 -0.000089 -89.793175 -1.359789 0.847147 121.602913
[L_mid_hand01]
15 103.859421 1.038730 8.195221 130.544373 -67.584534 -38.866943 104.187431
16 103.859421 1.038730 8.195221 130.544373 -67.584534 -38.866943 104.187431
[L_mid_hand02]
15 105.572853 -4.139662 -10.864139 -168.923172 43.409309 -73.498886 106.211075
16 105.572853 -4.139662 -10.864139 -168.923172 43.409309 -73.498886 106.211075
[L_mid_hand03]
15 104.641464 17.579376 -3.913581 -6.012627 17.808174 74.893669 106.179977
16 104.641464 17.579376 -3.913581 -6.012627 17.808174 74.893669 106.179977
[null_rope02_connect]
15 328.732849 0.000179 -0.000119 -116.101486 27.529917 12.015827 328.732849
16 328.732849 0.000179 -0.000119 -116.101486 27.529917 12.015827 328.732849
[Rope2_Seg01]
15 -0.000038 0.000153 0.000000 -39.864845 2.128270 -2.538072 0.000157
16 -0.000038 0.000153 0.000000 -40.672989 2.932459 -2.499299 0.000157
[Rope2_Seg02]
15 139.999741 -0.000060 -0.000119 -15.566620 5.122275 15.549372 139.999756
16 139.999741 -0.000060 -0.000119 -15.532716 4.806756 15.525852 139.999756
[Rope2_Seg03]
15 140.000107 0.000030 0.000000 -14.286561 -0.048665 21.324083 140.000107
16 140.000107 0.000030 0.000000 -14.002892 -0.444491 21.011282 140.000107
[Rope2_Seg04]
15 139.999802 0.000000 -0.000060 -7.164716 -4.740646 17.353107 139.999802
16 139.999802 0.000000 -0.000060 -7.002581 -4.867590 17.037569 139.999802
[Rope2_Seg05]
15 139.999985 -0.000060 0.000119 -4.505151 -0.610775 17.781521 139.999985
16 139.999985 -0.000060 0.000119 -4.643171 -0.693364 18.568512 139.999985
[Rope2_Seg06]
15 139.999893 -0.000030 -0.000119 -2.312803 -0.633071 21.424770 139.999893
16 139.999893 -0.000030 -0.000119 -2.179677 -0.940527 22.271122 139.999893
[Rope2_Seg07]
15 139.999893 0.000060 -0.000060 0.215236 -1.858929 14.106142 139.999893
16 139.999893 0.000060 -0.000060 0.446169 -1.952911 14.206984 139.999893
[Rope2_Seg09]
15 121.338966 0.000089 -0.000060 33.793236 -1.359788 -0.847141 121.338966
16 121.338966 0.000089 -0.000060 33.793236 -1.359788 -0.847141 121.338966
[R_mid_hand01]
15 104.680779 11.144459 -10.335981 -16.212063 45.237247 70.462852 105.778534
16 104.680779 11.144459 -10.335981 -16.212063 45.237247 70.462852 105.778534
[R_mid_hand02]
15 104.070427 2.443552 8.231699 49.067368 -67.749771 39.286453 104.424065
16 104.070427 2.443552 8.231699 49.067368 -67.749771 39.286453 104.424065
[R_mid_hand03]
15 106.028137 -11.221827 -5.996406 -177.101105 15.551026 -76.585571 106.788818
16 106.028137 -11.221827 -5.996406 -177.101105 15.551026 -76.585571 106.788818
[spine02]
15 129.756927 0.001550 0.000119 -1.023899 -3.926965 6.770993 129.756927
16 129.756927 0.001550 0.000119 -1.023899 -3.926965 6.770993 129.756927
[spine03]
15 78.613846 0.087372 -4.898873 1.040681 4.146420 4.212376 78.766380
16 78.613846 0.087372 -4.898873 1.040681 4.146420 4.212376 78.766380
[pelvis]
15 169.435242 0.051022 0.000000 0.019518 -0.190233 -10.721436 169.435257
16 169.435242 0.051022 0.000000 0.019518 -0.190233 -10.721436 169.435257
[null_rope03_connect]
15 -1.257226 -2.466202 137.391083 46.458321 -77.110146 49.356079 137.418976
16 -1.257226 -2.466202 137.391083 46.458321 -77.110146 49.356079 137.418976
[null_rope04_connect]
15 -1.259640 -2.480268 -137.844437 46.458321 -77.110146 49.356079 137.872513
16 -1.259640 -2.480268 -137.844437 46.458321 -77.110146 49.356079 137.872513
[Rope3_Seg01]
15 0.000000 0.000000 0.000000 -148.367722 -79.310860 -72.994385 0.000000
16 0.000000 0.000000 0.000000 -148.439789 -79.304619 -72.918777 0.000000
[Rope3_Seg02]
15 139.999924 -0.000119 0.000060 -0.038767 -5.666234 -11.513728 139.999924
16 139.999924 -0.000119 0.000060 -0.049404 -5.652454 -11.528072 139.999924
[Rope3_Seg03]
15 139.999924 -0.000119 0.000119 -0.574295 -7.358477 -14.741370 139.999924
16 139.999924 -0.000119 0.000119 -0.584204 -7.313912 -14.675636 139.999924
[Rope3_Seg04]
15 139.999924 0.000119 0.000000 3.967489 -10.285924 -12.966529 139.999924
16 139.999924 0.000119 0.000000 3.908997 -10.195711 -12.827097 139.999924
[Rope3_Seg05]
15 139.999924 -0.000238 0.000060 -11.848948 -3.515190 -12.114390 139.999924
16 139.999924 -0.000238 0.000060 -11.498153 -3.491409 -12.013616 139.999924
[Rope3_Seg06]
15 139.999893 -0.000119 -0.000060 -88.409966 10.044046 -25.370283 139.999893
16 139.999893 -0.000119 -0.000060 -87.678131 9.810240 -25.272945 139.999893
[Rope3_Seg07]
15 139.999771 0.000060 -0.000119 -17.540077 29.465536 10.240727 139.999771
16 139.999771 0.000060 -0.000119 -18.375727 29.687389 9.698215 139.999771
[Rope3_Seg08]
15 139.999985 -0.000060 0.000000 -1.720272 12.071013 8.557272 139.999985
16 139.999985 -0.000060 0.000000 -1.809772 12.172137 8.537139 139.999985
[Rope3_Seg09]
15 90.185997 -0.000179 -0.000060 89.793228 -1.359877 -0.847183 90.185997
16 90.185997 -0.000179 -0.000060 89.793228 -1.359877 -0.847183 90.185997
[R_rear_hand01]
15 103.366196 -6.073594 -10.757982 -177.714203 24.565960 -73.910950 104.101845
16 103.366196 -6.073594 -10.757982 -177.714203 24.565960 -73.910950 104.101845
[R_rear_hand02]
15 100.509819 12.039542 -7.992327 -12.874829 36.868488 72.167213 101.543350
16 100.509819 12.039542 -7.992327 -12.874829 36.868488 72.167213 101.543350
[R_rear_hand03]
15 101.539970 5.215704 5.435467 71.484581 -71.816628 21.513813 101.819031
16 101.539970 5.215704 5.435467 71.484581 -71.816628 21.513813 101.819031
[Rope4_Seg01]
15 0.000012 -0.000114 -0.000153 67.731140 -40.431553 -126.093681 0.000191
16 0.000011 -0.000114 -0.000153 67.731796 -40.429668 -126.096725 0.000191
[Rope4_Seg02]
15 139.999985 0.000060 0.000119 2.560223 -13.138374 -3.014813 139.999985
16 139.999985 0.000060 0.000119 2.559998 -13.135912 -3.013479 139.999985
[Rope4_Seg03]
15 139.999924 0.000000 -0.000238 10.358715 -22.037579 -4.410952 139.999924
16 139.999924 0.000000 -0.000238 10.360640 -22.035202 -4.408570 139.999924
[Rope4_Seg04]
15 139.999985 0.000000 0.000119 59.683895 -23.857546 -1.472006 139.999985
16 139.999985 0.000000 0.000119 59.682140 -23.858839 -1.489822 139.999985
[Rope4_Seg05]
15 139.999802 -0.000060 -0.000119 65.439156 -9.480642 17.735441 139.999802
16 139.999802 -0.000060 -0.000119 65.452820 -9.464649 17.733797 139.999802
[Rope4_Seg06]
15 139.999924 0.000000 0.000060 16.096087 19.098246 22.332592 139.999924
16 139.999924 0.000000 0.000060 16.061880 19.171000 22.338539 139.999924
[Rope4_Seg07]
15 139.999802 0.000000 0.000000 4.129892 16.135059 12.278623 139.999802
16 139.999802 0.000000 0.000000 4.128025 16.185188 12.295992 139.999802
[Rope4_Seg08]
15 139.999924 0.000000 0.000119 -0.633727 7.696035 5.304552 139.999924
16 139.999924 0.000000 0.000119 -0.637689 7.711148 5.309213 139.999924
[Rope4_Seg09]
15 90.185791 0.000060 0.000060 -135.617828 2.228885 0.850567 90.185791
16 90.185791 0.000060 0.000060 -135.617828 2.228885 0.850567 90.185791
[L_rear_hand01]
15 101.696655 -8.392275 -7.654577 -12.874829 -36.868488 107.832764 102.329041
16 101.696655 -8.392275 -7.654577 -12.874829 -36.868488 107.832764 102.329041
[L_rear_hand02]
15 102.726799 -1.568258 5.773216 71.484581 71.816628 158.486160 102.900848
16 102.726799 -1.568258 5.773216 71.484581 71.816628 158.486160 102.900848
[L_rear_hand03]
15 104.552910 9.721220 -10.420293 -177.714203 -24.565960 -106.089035 105.519653
16 104.552910 9.721220 -10.420293 -177.714203 -24.565960 -106.089035 105.519653
